HIERARCHY
ROOT Hips
{
  OFFSET 40.9192 92.6879 18.85
  CHANNELS 6 Xposition Yposition Zposition Zrotation Xrotation Yrotation
  JOINT LeftUpLeg
  {
    OFFSET 8.64259 1.95398 -2.38835
    CHANNELS 3 Zrotation Xrotation Yrotation
    JOINT LeftLeg
    {
      OFFSET 43.7702 0 0
      CHANNELS 3 Zrotation Xrotation Yrotation
      JOINT LeftFoot
      {
        OFFSET 40.6238 0 0
        CHANNELS 3 Zrotation Xrotation Yrotation
        JOINT LeftToeBase
        {
          OFFSET 12.7242 0 0
          CHANNELS 3 Zrotation Xrotation Yrotation
          End Site
          {
            OFFSET 0 0 0
          }
        }
      }
    }
  }
  JOINT RightUpLeg
  {
    OFFSET -8.2249 1.95398 -2.59336
    CHANNELS 3 Zrotation Xrotation Yrotation
    JOINT RightLeg
    {
      OFFSET 43.5653 0 0
      CHANNELS 3 Zrotation Xrotation Yrotation
      JOINT RightFoot
      {
        OFFSET 40.6238 0 0
        CHANNELS 3 Zrotation Xrotation Yrotation
        JOINT RightToeBase
        {
          OFFSET 12.7242 0 0
          CHANNELS 3 Zrotation Xrotation Yrotation
          End Site
          {
            OFFSET 0 0 0
          }
        }
      }
    }
  }
  JOINT Spine
  {
    OFFSET 0.165834 0.87714 6.61349
    CHANNELS 3 Zrotation Xrotation Yrotation
    JOINT Spine1
    {
      OFFSET 7.38963 1.71661e-005 0
      CHANNELS 3 Zrotation Xrotation Yrotation
      JOINT Spine2
      {
        OFFSET 11.9445 1.14441e-005 0
        CHANNELS 3 Zrotation Xrotation Yrotation
        JOINT Spine3
        {
          OFFSET 14.7254 4.19617e-005 0
          CHANNELS 3 Zrotation Xrotation Yrotation
          JOINT Spine4
          {
            OFFSET 10.9679 0 0
            CHANNELS 3 Zrotation Xrotation Yrotation
            JOINT RightShoulder
            {
              OFFSET 2.46616 -1.6653 3.69651
              CHANNELS 3 Zrotation Xrotation Yrotation
              JOINT RightArm
              {
                OFFSET 13.0012 0 0
                CHANNELS 3 Zrotation Xrotation Yrotation
                JOINT RightForeArm
                {
                  OFFSET 28.7848 1.52588e-005 0
                  CHANNELS 3 Zrotation Xrotation Yrotation
                  JOINT RightHand
                  {
                    OFFSET 26.5688 1.52588e-005 0
                    CHANNELS 3 Zrotation Xrotation Yrotation
                    End Site
                    {
                      OFFSET 0 0 0
                    }
                  }
                }
              }
            }
            JOINT LeftShoulder
            {
              OFFSET 2.38034 -1.29275 -3.7523
              CHANNELS 3 Zrotation Xrotation Yrotation
              JOINT LeftArm
              {
                OFFSET 16.3182 6.10351e-005 0
                CHANNELS 3 Zrotation Xrotation Yrotation
                JOINT LeftForeArm
                {
                  OFFSET 27.0901 0 0
                  CHANNELS 3 Zrotation Xrotation Yrotation
                  JOINT LeftHand
                  {
                    OFFSET 24.5451 1.52588e-005 0
                    CHANNELS 3 Zrotation Xrotation Yrotation
                    End Site
                    {
                      OFFSET 0 0 0
                    }
                  }
                }
              }
            }
            JOINT Neck
            {
              OFFSET 5.0226 -0.0266342 0
              CHANNELS 3 Zrotation Xrotation Yrotation
              JOINT Head
              {
                OFFSET 6.69363 2.86102e-005 0
                CHANNELS 3 Zrotation Xrotation Yrotation
                End Site
                {
                  OFFSET 0 0 0
                }
              }
            }
          }
        }
      }
    }
  }
}
MOTION
Frames:	15
Frame Time:	0.0416667
68.7479 82.6406 22.4355 -95.0971 -65.5063 -100.71 -176.815 32.268 103.035 -53.1024 30.7787 3.10793 63.7583 5.92285 7.10659 50.3972 17.57 3.49652 -174.185 38.9686 91.7228 -79.4718 1.76604 -5.14745 79.1388 -10.7944 -4.73992 43.2186 0.0431233 -10.9921 0.103361 9.20431 -88.8673 8.45314 0.706346 2.196 -3.2194 0.802288 2.1628 -25.7397 0.0138887 2.30671 -5.72705 0.0138913 2.30671 92.2217 -50.0715 -97.398 22.0321 -14.6665 -7.27244 -31.497 -22.7897 -73.3904 -41.4367 -2.07482 3.22551 -86.9635 -35.0572 80.3836 -16.0721 -20.42 19.8163 12.5543 1.6166 -70.1798 13.7792 1.05146 3.69199 -1.33287 -38.522 5.3903 -16.6353 -35.7807 -35.9848 
69.0577 82.0953 21.8672 -92.9646 -64.9542 -98.1589 -176.144 34.5959 104.201 -54.3155 32.3915 2.40132 62.3322 5.07784 9.32229 52.3419 18.6926 1.47676 -175.779 40.7119 93.0331 -83.2155 2.94224 -4.22174 77.5774 -10.5668 -4.79494 44.0235 -0.0398122 -11.6291 -0.0300136 9.2428 -88.7757 8.37695 0.479899 2.39124 -3.29606 0.584643 2.36781 -25.8136 -0.260749 2.42491 -5.80097 -0.260731 2.42492 92.6901 -50.4923 -96.5997 27.5924 -9.79725 -0.73603 -26.9365 -25.9341 -63.4947 -42.0152 -2.89661 5.12539 -87.0979 -35.5576 80.2579 -16.8735 -18.2244 13.637 17.3636 -0.678827 -88.7457 11.4388 0.761213 2.65399 -2.35823 -37.2102 4.75203 -15.9593 -34.5203 -36.2353 
69.0195 81.6595 21.1886 -91.3206 -63.2079 -96.4281 -175.883 35.4372 105.169 -54.7423 31.3536 2.27093 62.3242 5.00801 8.55609 52.3089 18.8704 2.3634 -176.627 41.7455 93.3339 -86.2566 4.58852 -3.7655 76.7174 -10.6364 -4.90261 43.8286 0.0493808 -10.4593 -0.136524 9.29006 -88.7314 8.28384 0.285866 2.49042 -3.38942 0.395182 2.47544 -25.9058 -0.475595 2.46127 -5.8932 -0.475581 2.46126 92.888 -50.9249 -96.22 27.9473 -7.04594 2.46864 -14.0963 -25.4073 -49.5058 -41.3066 -3.23836 5.3897 -87.4882 -35.9465 79.6529 -21.767 -9.89467 4.7045 20.3863 -6.25593 -100.202 6.43573 0.283591 0.584556 -3.71491 -36.3327 4.43418 -15.0047 -33.8107 -36.6174 
68.601 81.4992 20.5286 -89.885 -59.8028 -95.4156 -175.274 34.7044 105.759 -54.1436 30.0447 2.21275 62.1564 4.93402 8.50977 52.3266 19.2314 3.85166 -176.422 42.6287 91.9879 -88.6159 6.09063 -3.69406 75.2513 -10.4502 -4.94999 43.6256 0.175316 -8.67112 -0.192505 9.23146 -88.7814 8.40318 0.15332 2.40032 -3.26997 0.258797 2.39125 -25.7879 -0.57494 2.33552 -5.77529 -0.574939 2.33552 92.7759 -50.5677 -96.4549 26.8575 -4.93447 5.9496 -7.79232 -23.7023 -39.8688 -40.8428 -3.26371 5.21981 -88.4732 -38.1422 78.4574 -23.6147 5.18404 -4.18124 24.0247 -10.6303 -103.82 4.08571 0.195157 0.650664 -2.55132 -35.7882 5.89502 -14.7116 -33.4712 -36.4644 
67.5409 81.8611 19.8566 -89.306 -54.3113 -96.4154 -173.515 30.97 105.293 -50.7731 28.4301 1.84501 60.8842 4.29795 10.3662 53.154 19.9029 3.80517 -175.988 43.1661 88.9361 -89.9624 7.48262 -3.7899 74.022 -10.0457 -4.85846 42.8179 0.202033 -8.61623 -0.259598 9.09207 -88.7837 8.68323 0.0215857 2.40479 -2.98992 0.127388 2.4015 -25.5083 -0.701982 2.30021 -5.49568 -0.701961 2.30021 93.1939 -49.6748 -95.9689 25.6393 -3.29722 9.56301 -7.55523 -24.002 -37.5791 -40.8817 -3.26913 5.24319 -90.0818 -39.8361 76.1604 -23.5965 17.539 -8.74329 28.7248 -14.0787 -102.457 0.84859 0.0381222 0.164104 -0.717739 -35.051 7.18984 -13.0429 -33.4548 -34.4115 
65.146 83.0398 19.2468 -87.5598 -46.2007 -97.6287 -170.432 23.8719 104.706 -42.6225 24.1179 0.853735 59.5204 2.71477 6.83608 52.2644 19.8465 6.62045 -177.427 43.5415 86.1032 -88.9805 7.99546 -3.61322 74.0996 -9.55604 -4.61009 42.5199 -0.0118384 -12.5235 -0.288064 8.7831 -88.8049 9.30199 -0.0379549 2.37069 -2.37113 0.0663839 2.37005 -24.8902 -0.748515 2.2498 -4.87756 -0.74851 2.24979 93.4853 -48.5528 -95.7105 23.9093 -4.0623 13.1253 -6.89661 -20.898 -41.2158 -41.1163 -3.11469 4.54671 -91.3434 -42.0078 74.6681 -23.9613 23.1377 -5.91369 33.7595 -15.3206 -100.136 -1.98239 -0.0715057 1.21303 1.11364 -33.9306 9.84956 -11.3455 -33.1827 -32.741 
61.3039 84.8376 18.2966 -85.5098 -35.6521 -98.7482 -166.324 15.0578 105.222 -31.8201 17.1375 -1.08273 53.8958 -2.66491 0.180483 51.6704 19.8466 8.73519 178.022 42.69 86.0426 -84.3509 7.09297 -2.6837 74.8929 -9.00616 -4.28591 43.2559 0.038208 -11.2505 -0.102872 8.36626 -88.9111 10.1338 0.291454 2.13786 -1.53887 0.385265 2.12297 -24.0602 -0.364372 2.12665 -4.04751 -0.364372 2.12664 94.0505 -47.8264 -94.9437 22.9025 -5.05372 14.9727 -7.84952 -19.6007 -46.2924 -41.69 -2.8396 3.65142 -90.735 -43.5946 76.0811 -26.5807 24.1114 0.622562 34.4666 -11.3519 -93.1274 2.73984 0.200687 2.01407 1.6913 -31.8898 12.2269 -8.39596 -32.2668 -29.1997 
56.3883 86.3365 16.4339 -83.7558 -27.2166 -100.92 -165.149 6.76916 104.915 -21.8428 9.7813 -1.13536 42.2068 -9.63627 -9.71481 44.6937 14.7063 16.7479 171.925 39.8589 86.3702 -77.2166 3.71294 -0.632661 74.3324 -7.53148 -3.64533 41.7607 0.193977 -10.0623 -0.0634328 8.11352 -89.0133 10.6391 0.327626 1.93063 -1.03324 0.412271 1.91435 -23.5569 -0.267624 1.93986 -3.54423 -0.267654 1.93984 95.5245 -48.9567 -92.4461 20.5618 -5.83807 14.0072 -8.43832 -17.293 -52.2007 -43.0637 -2.78068 3.14406 -88.9365 -42.5973 78.7446 -31.059 22.0094 6.24976 35.4932 1.52882 -89.1619 10.1392 1.05238 5.83741 2.0942 -29.3526 12.6934 -3.90309 -30.777 -24.7277 
50.9235 86.5419 13.7437 -80.2063 -19.8681 -101.414 -168.446 6.40267 103.203 -24.9707 10.0604 0.743184 39.4396 -11.898 -7.03795 33.2012 2.79764 16.4545 168.426 36.7229 88.6618 -71.9133 3.5602 1.67511 74.7712 -7.29872 -3.5437 45.0083 0.396422 -5.48579 -0.0309029 7.98006 -89.2951 10.9117 0.264486 1.37907 -0.75988 0.324939 1.36609 -23.2894 -0.162166 1.39481 -3.27672 -0.162159 1.3948 95.7116 -49.9834 -92.0216 17.536 -4.68869 11.2482 -8.6255 -13.3548 -60.0372 -44.0804 -2.54355 2.09378 -88.3955 -42.6446 79.636 -33.8348 17.1442 10.1889 29.6113 7.29516 -72.2559 20.2864 2.42224 8.1112 4.32611 -26.9653 12.5401 0.989667 -29.242 -19.5319 
46.2626 85.8734 10.5206 -77.9959 -11.718 -102.462 -171.052 11.9679 100.486 -41.0644 13.0026 1.25496 46.0443 -7.73731 0.111978 28.8867 -1.5864 14.972 169.622 32.0199 90.5349 -67.6225 3.25805 1.68951 82.111 -9.61684 -3.98986 41.1589 0.681001 1.42083 0.139478 8.10964 -89.4722 10.6512 0.520756 1.0019 -1.02002 0.56438 0.978015 -23.5522 0.195578 1.11208 -3.5396 0.195617 1.11209 96.1925 -50.9575 -91.163 15.0276 -3.44397 6.43338 -12.4298 -9.9561 -72.3087 -50.0869 -1.90878 -0.0180874 -88.4292 -42.996 79.6585 -35.078 14.1244 15.0807 16.7729 10.8399 -58.7032 24.8782 2.99637 8.31576 6.87785 -24.8086 12.2404 4.98407 -27.6192 -16.312 
41.8631 84.8094 7.74176 -74.6276 -1.56599 -102.388 -170.597 23.0052 97.847 -60.0283 14.54 -0.300843 47.81 -6.75299 0.59926 31.3027 1.1304 12.0994 174.401 29.5098 93.3212 -65.902 -1.33067 -0.508215 80.4662 -9.31963 -3.99944 46.7593 0.895794 -0.188396 0.708132 8.24731 -89.7046 10.3761 1.54609 0.452218 -1.29398 1.56448 0.383713 -23.8343 1.3387 0.896037 -3.82165 1.33867 0.896033 95.8535 -47.8761 -92.0725 15.3046 -2.5549 0.19218 -20.0323 -2.41426 -84.9992 -46.7125 -2.05504 0.898364 -88.4814 -44.2727 79.8519 -36.4737 13.3499 21.6359 6.04662 6.05107 -50.6519 25.6397 2.725 6.88511 10.4439 -22.5796 13.8511 8.15597 -26.2163 -14.2652 
36.6188 84.3022 3.83949 -72.4942 5.9757 -103.911 -167.578 35.4132 93.163 -73.0286 20.695 -1.84313 50.1244 -5.29883 1.90172 34.0866 3.87056 11.139 176.33 22.8685 94.3558 -59.2186 -2.91845 -1.35595 82.1806 -10.3036 -4.25995 46.6544 1.0377 1.55609 1.16376 8.24844 -89.6165 10.3741 2.49416 0.543218 -1.29455 2.51564 0.432866 -23.8449 2.21555 1.26803 -3.83228 2.21553 1.26802 94.9129 -45.2348 -93.965 15.2376 -2.02293 -5.15659 -30.7515 -1.29649 -97.1501 -48.0238 -2.02123 1.44584 -87.7012 -42.2848 80.6959 -41.2989 14.9838 30.6678 12.9351 12.8123 -52.1239 22.9398 2.42386 6.78995 10.2743 -20.8733 14.1077 10.4965 -24.6868 -12.649 
30.1439 85.1566 -0.685771 -71.1754 10.9652 -107.202 -161.965 45.6582 84.589 -75.5966 23.2012 -3.52141 53.5138 -3.24612 1.09165 37.6773 7.29339 11.3007 177.532 14.3413 92.4933 -49.8248 -7.29697 -3.08719 78.66 -9.08671 -4.11812 44.707 0.947727 1.99674 1.5011 8.21768 -89.2901 10.4241 3.31557 1.11914 -1.24302 3.36159 0.971997 -23.8006 2.82591 2.06442 -3.78793 2.82591 2.06443 94.4883 -42.415 -95.1524 15.0223 -3.09774 -9.51859 -37.0678 4.31477 -101.661 -50.815 -2.6901 3.09602 -87.5373 -40.4752 80.59 -45.8248 16.6647 39.7854 13.7744 11.241 -56.6262 20.2617 1.62073 4.14306 10.5885 -20.6047 14.6605 9.87416 -24.5422 -12.9664 
22.4326 87.4406 -5.82625 -70.1561 13.3926 -108.08 -158.595 52.2558 77.8632 -66.9671 25.9858 -5.63851 55.6916 -2.52823 0.734549 42.5244 12.0208 12.4603 178.064 5.77561 91.8176 -37.1175 -15.4783 -4.34182 62.0798 -2.64288 -1.63593 44.4494 1.22543 6.05079 1.74025 8.1743 -89.1094 10.5027 3.87515 1.42509 -1.16311 3.9341 1.25294 -23.7272 3.26768 2.52465 -3.71461 3.26769 2.52462 94.3871 -39.8639 -95.7965 17.182 -5.90208 -10.6728 -37.3563 5.30068 -101.155 -46.7169 -2.77011 3.76355 -88.1533 -37.7944 78.9273 -49.535 17.5317 43.3409 16.2318 11.9783 -59.4811 20.6775 1.6831 4.31221 13.6315 -20.4242 13.9341 6.64395 -24.1489 -12.7141 
13.8246 89.7915 -11.5074 -67.8802 17.0457 -108.783 -155.795 53.3711 75.2827 -51.0106 26.6649 -10.1497 59.2561 0.0162765 3.8501 45.9907 15.9234 15.7577 177.676 0.925488 90.8378 -27.3592 -23.807 -4.9581 41.2295 5.29567 4.87123 33.4395 0.286037 6.15766 2.05647 8.15315 -88.89 10.5324 4.60578 1.7949 -1.1313 4.6803 1.59008 -23.7057 3.85341 3.09736 -3.69303 3.85341 3.09734 93.3965 -39.1826 -97.6837 19.8369 -7.2757 -9.34809 -33.9301 -0.120192 -97.1473 -38.9766 -1.81797 2.06147 -90.1957 -37.7857 75.4007 -49.0514 18.2352 42.1569 15.8304 10.5233 -61.0088 21.8272 1.58788 3.44689 17.2438 -19.5333 14.5397 3.38289 -23.6003 -14.7464 
